
<svg width="50" height="50" viewBox="0 0 50 50" fill="none" xmlns="http://www.w3.org/2000/svg">
<rect width="50" height="50" rx="10" fill="#E8F0FE"/>
<path d="M33.5 37.5H40C40.5 37.5 41.5 37.2 41.5 36C41.5 34.8 41.5 20.5 41.5 13.5C41.5 13.1667 41.2 12.5 40 12.5C38.8 12.5 35.8333 12.5 34.5 12.5M34.5 12.5L36.5 10.5M34.5 12.5L36.5 14.5" stroke="#FE99A0" stroke-width="2" stroke-linecap="round" stroke-linejoin="round"/>
<rect x="8.5" y="8" width="22" height="9" rx="1" fill="#9DBFFB"/>
<rect x="8.5" y="8" width="20" height="9" rx="1" fill="#C4D9FD"/>
<rect x="10.5" y="10" width="5" height="5" rx="1" fill="#F1D8FF"/>
<line x1="20" y1="10.5" x2="28" y2="10.5" stroke="#919191" stroke-linecap="round"/>
<line x1="17" y1="12.5" x2="24" y2="12.5" stroke="#919191" stroke-linecap="round"/>
<line x1="27" y1="12.5" x2="28" y2="12.5" stroke="#919191" stroke-linecap="round"/>
<line x1="17" y1="14.5" x2="22" y2="14.5" stroke="#919191" stroke-linecap="round"/>
<rect x="13.5" y="21" width="22" height="9" rx="1" fill="#9DBFFB"/>
<rect x="13.5" y="21" width="20" height="9" rx="1" fill="#C4D9FD"/>
<rect x="15.5" y="23" width="5" height="5" rx="1" fill="#EDFFD0"/>
<line x1="25" y1="23.5" x2="33" y2="23.5" stroke="#919191" stroke-linecap="round"/>
<line x1="22" y1="25.5" x2="29" y2="25.5" stroke="#919191" stroke-linecap="round"/>
<line x1="32" y1="25.5" x2="33" y2="25.5" stroke="#919191" stroke-linecap="round"/>
<line x1="22" y1="27.5" x2="27" y2="27.5" stroke="#919191" stroke-linecap="round"/>
<rect x="8.5" y="33" width="22" height="9" rx="1" fill="#9DBFFB"/>
<rect x="8.5" y="33" width="20" height="9" rx="1" fill="#C4D9FD"/>
<rect x="10.5" y="35" width="5" height="5" rx="1" fill="#FFF6D4"/>
<line x1="20" y1="35.5" x2="28" y2="35.5" stroke="#919191" stroke-linecap="round"/>
<line x1="17" y1="37.5" x2="24" y2="37.5" stroke="#919191" stroke-linecap="round"/>
<line x1="27" y1="37.5" x2="28" y2="37.5" stroke="#919191" stroke-linecap="round"/>
<line x1="17" y1="39.5" x2="22" y2="39.5" stroke="#919191" stroke-linecap="round"/>
</svg>
