<svg width="1440" height="1024" viewBox="0 0 1440 1024" fill="none" xmlns="http://www.w3.org/2000/svg">
<mask id="mask0_1463_30619" style="mask-type:luminance" maskUnits="userSpaceOnUse" x="199" y="0" width="1302" height="1024">
<path d="M199.718 1024H1500.42V0H199.718V1024Z" fill="white"/>
</mask>
<g mask="url(#mask0_1463_30619)">
<g opacity="0.15">
<path d="M1917.49 261.35L1662.65 458.825L1415.37 331.522L1415.05 332.221L1662.73 459.726L1916.04 263.439L1768.21 717.511L1988.66 504.46L1988.17 503.886L1769.84 714.885L1917.49 261.35Z" fill="#DDE9F7"/>
<path d="M1676.73 296.034L1663.05 459.309L1662.32 459.239L1675.99 296.138L1415.26 332.256L1415.16 331.486L1676.06 295.346L1699.1 20.3458L1917.03 262.124L1917.53 262.679L1676.73 296.034ZM1676.8 295.243L1916 262.108L1699.68 22.1197L1676.8 295.243Z" fill="#DDE9F7"/>
<path d="M1415.48 332.133L1414.71 332.973L1445.67 79.5189L1445.7 79.2465L1699.31 20.8462L1700.5 20.5738L1415.48 332.133ZM1415.72 330.753L1698.28 21.8765L1446.36 79.8876L1415.72 330.753Z" fill="#DDE9F7"/>
<path d="M1699.47 20.8462L1236.52 -82.359L1444.96 79.2178L1089.45 92.2969L1089.48 93.0732L1447.1 79.9163L1239.7 -80.8555L1699.31 21.6041L1699.47 20.8462Z" fill="#DDE9F7"/>
<path d="M1686.66 173.249L1522.77 213.641L1090.14 92.4717L1238.38 -81.3484L1383.05 -228.578L1445.67 79.6487L1446.39 79.4848L1383.49 -230.102L1383.02 -229.621L1237.86 -81.8892L1088.79 92.8958L1089.37 93.0596L1522.76 214.442L1686.83 174.005L1686.66 173.249Z" fill="#DDE9F7"/>
<path d="M1677.61 296.007L1523.4 214.285L1523.73 213.591L1677.42 295.034L1886.68 20.8556L1699.39 21.6074H1699.27L1383.19 -228.926L1152.94 -172.588L1239.24 -80.9648L995.564 -134.877L1151.49 -173.029L1037.86 -293.672L1038.38 -294.221L1152.33 -173.236L1383.2 -229.723L1383.36 -229.764L1699.51 20.829L1887.45 20.0752L1888.22 20.071L1677.61 296.007ZM998.975 -134.92L1236.99 -82.2594L1152.1 -172.385L998.975 -134.92Z" fill="#DDE9F7"/>
<path d="M1383.64 -229.326L1383.63 -228.877L1038.38 -293.499L997.655 -134.921L1089.8 92.5328L1089.13 92.8401L996.932 -134.738L865.315 -458.883L1038.22 -294.365L1387.56 -375.169L1388.02 -375.275L1383.64 -229.326ZM1382.92 -229.799L1387.26 -374.302L1040.01 -293.982L1382.92 -229.799ZM997.189 -136.066L1037.7 -293.812L867.303 -455.946L997.189 -136.066Z" fill="#DDE9F7"/>
<path d="M986.608 253.133L990.531 105.264L847.201 122.911L997.672 -136.324L991.286 104.39L1090.22 92.2078L986.608 253.133ZM987.411 250.509L1088.71 93.1767L991.267 105.174L987.411 250.509ZM990.552 104.48L996.864 -133.45L848.619 121.955L990.552 104.48Z" fill="#DDE9F7"/>
<path d="M848.164 122.801L1238.32 -81.2693L1238 -81.9655L847.84 122.105L848.164 122.801Z" fill="#DDE9F7"/>
<path d="M1258.91 -532.781L1036.95 -291.259L1037.47 -290.716L1258.09 -530.776L1250.06 -343.069L1250.15 -343.065C1250 -342.277 1249.88 -339.79 1249.49 -331.836C1249.15 -324.687 1248.66 -314.471 1248.08 -302.218C1246.92 -277.706 1245.39 -245.026 1243.85 -212.346C1240.79 -146.987 1237.75 -81.6283 1237.75 -81.6283L1237.74 -81.4869L1237.82 -81.3743L1430.96 187.056L997.343 -135.313L997.183 -135.272L884.862 -106.613L990.587 105.001L991.234 104.636L885.951 -106.092L997.195 -134.477L1434.41 190.569L1238.49 -81.7307C1238.82 -88.8961 1250.18 -332.526 1250.77 -342.682H1250.78L1250.79 -343.034L1258.91 -532.781Z" fill="#DDE9F7"/>
<path d="M2124.17 -26.4838L1888.21 19.9291L2038.94 -231.899L2038.21 -231.844L1733.85 -208.877L1733.76 -208.66L1593.59 135.898L1385.19 -375.898L1384.51 -375.589L1593.59 137.858L1593.93 137.033L1734.35 -208.135L2037.54 -231.014L1886.69 21.0169L1887.52 20.855L2122.44 -25.3531L1916.36 262.312L1916.41 262.504L2048.7 708.887L2049.07 707.854L2141.95 454.003L2141.26 453.722L2048.77 706.541L1917.17 262.463L2124.17 -26.4838Z" fill="#DDE9F7"/>
<path d="M1292.94 85.3389L1293.63 85.0801L1238.82 -81.8534L1238.13 -81.5946L1292.94 85.3389Z" fill="#DDE9F7"/>
<path d="M1089.15 92.697L1089.88 92.5872L1038.89 -294.117L1038.17 -294.007L1089.15 92.697Z" fill="#DDE9F7"/>
<path d="M1356.72 82.8922L1383.62 -229.318L1382.89 -229.389L1355.99 82.8215L1356.72 82.8922Z" fill="#DDE9F7"/>
<path d="M1418.1 335.874C1422.04 332.129 1419.01 325.837 1413.84 327.025C1413.28 327.154 1412.75 327.44 1412.32 327.846C1408.39 331.59 1411.42 337.881 1416.59 336.693C1417.15 336.566 1417.68 336.279 1418.1 335.874Z" fill="#DDE9F7"/>
<path d="M1448.83 83.8763C1452.77 80.1318 1449.73 73.8391 1444.57 75.0292C1444.01 75.1582 1443.48 75.445 1443.05 75.8506C1439.12 79.5951 1442.15 85.8858 1447.32 84.6977C1447.87 84.5686 1448.41 84.2798 1448.83 83.8763Z" fill="#DDE9F7"/>
<path d="M1435.57 192.818C1439.51 189.074 1436.48 182.781 1431.31 183.971C1430.75 184.1 1430.22 184.387 1429.8 184.792C1425.86 188.537 1428.89 194.828 1434.06 193.64C1434.62 193.511 1435.15 193.224 1435.57 192.818Z" fill="#DDE9F7"/>
<path d="M1359.34 86.8622C1363.28 83.1177 1360.25 76.825 1355.08 78.0151C1354.52 78.1442 1353.99 78.4309 1353.56 78.8365C1349.63 82.581 1352.66 88.8737 1357.83 87.6836C1358.38 87.5545 1358.92 87.2658 1359.34 86.8622Z" fill="#DDE9F7"/>
<path d="M1296.18 89.1935C1300.12 85.449 1297.09 79.1563 1291.92 80.3444C1291.36 80.4734 1290.83 80.7602 1290.41 81.1658C1286.47 84.9103 1289.5 91.201 1294.67 90.0129C1295.23 89.8838 1295.76 89.5971 1296.18 89.1935Z" fill="#DDE9F7"/>
<path d="M1175.29 -0.78181C1179.23 -4.52631 1176.2 -10.819 1171.03 -9.63097C1170.47 -9.50192 1169.94 -9.21514 1169.51 -8.80955C1165.58 -5.06506 1168.61 1.22562 1173.77 0.0375421C1174.33 -0.0894594 1174.86 -0.378273 1175.29 -0.78181Z" fill="#DDE9F7"/>
<path d="M1092.35 96.6824C1096.29 92.9379 1093.26 86.6473 1088.09 87.8353C1087.53 87.9644 1087 88.2512 1086.58 88.6568C1082.64 92.4013 1085.67 98.6919 1090.84 97.5039C1091.4 97.3748 1091.93 97.088 1092.35 96.6824Z" fill="#DDE9F7"/>
<path d="M990.187 253.887C994.124 250.142 991.091 243.85 985.924 245.04C985.366 245.169 984.835 245.456 984.41 245.861C980.474 249.606 983.506 255.898 988.673 254.708C989.231 254.579 989.762 254.29 990.187 253.887Z" fill="#DDE9F7"/>
<path d="M993.324 108.656C997.261 104.912 994.228 98.6211 989.062 99.8092C988.503 99.9383 987.972 100.225 987.547 100.631C983.611 104.375 986.643 110.666 991.81 109.478C992.368 109.349 992.9 109.06 993.324 108.656Z" fill="#DDE9F7"/>
<path d="M850.8 126.42C854.736 122.676 851.704 116.385 846.537 117.573C845.979 117.702 845.448 117.989 845.021 118.395C841.086 122.139 844.117 128.43 849.284 127.242C849.842 127.113 850.373 126.826 850.8 126.42Z" fill="#DDE9F7"/>
</g>
</g>
<mask id="mask1_1463_30619" style="mask-type:luminance" maskUnits="userSpaceOnUse" x="-61" y="0" width="1562" height="1024">
<path d="M-60.4214 1024H1500.42V0H-60.4214V1024Z" fill="white"/>
</mask>
<g mask="url(#mask1_1463_30619)">
<path d="M221.546 734.983L222.041 736.093L327.984 973.521L327.85 973.732L202.873 1169.56L202.923 1168.39L221.546 734.983ZM327.263 973.441L222.026 737.595L203.562 1167.26L327.263 973.441Z" fill="#DDE9F7"/>
<path d="M221.956 735.983L532.807 1027.27L328.403 974.09L515.42 1260.32L514.973 1260.83L326.843 972.892L530.228 1025.81L221.613 736.615L221.956 735.983Z" fill="#DDE9F7"/>
<path d="M143.63 849.204L210.609 1004.43L514.947 1259.91L531.224 1026.51L534.569 813.914L327.774 973.83L327.473 973.16L535.182 812.539L535.171 813.234L531.814 1026.55L515.448 1261.25L515.038 1260.9L210.167 1004.99L143.115 849.587L143.63 849.204Z" fill="#DDE9F7"/>
<path d="M119.205 588.181L119.624 588.785L221.938 735.925L535.064 812.857L535.133 813.013L629.71 1031.39L759.741 1038.36L759.718 1039.13L630.055 1032.19L693.933 1179.69L530.541 1026.08L629.013 1031.36L534.686 813.554L221.634 736.64L221.567 736.543L119.607 589.912L80.4993 938.892L210.111 1003.64L209.901 1004.36L79.8446 939.396L119.205 588.181ZM629.358 1032.15L532.495 1026.97L692.089 1177L629.358 1032.15Z" fill="#DDE9F7"/>
<path d="M613.986 710.672L614.178 711.102L759.908 1038.39L946.536 1061.86L693.108 1178.72L515.295 1260.94L515.098 1260.2L692.815 1178.04L759.336 1038.85L534.425 813.257L534.668 812.943L613.986 710.672ZM758.717 1037.26L613.86 711.926L535.326 813.185L758.717 1037.26ZM943.804 1062.3L759.883 1039.17L693.712 1177.62L943.804 1062.3Z" fill="#DDE9F7"/>
<path d="M-263.484 682.558L-135.75 868.439L-117.782 624.828L-31.8892 729.716L328.507 973.643L-3.50207 1062.05L-3.61425 1061.88L-135.29 870.266L-145.494 1008.62L-263.484 682.558ZM-135.828 869.488L-261.216 687.019L-145.878 1005.75L-135.828 869.488ZM326.741 973.322L-32.2322 730.358L-32.2618 730.321L-117.31 626.464L-135.215 869.219L-3.29008 1061.2L326.741 973.322Z" fill="#DDE9F7"/>
<path d="M177.729 300.834L178.315 300.732L205.798 574.236L332.112 553.119L221.583 737.269L205.288 575.104L119.515 589.443L-31.8911 730.37L-32.2325 729.737L119.294 588.7L205.21 574.336L177.729 300.834ZM330.755 554.129L205.876 575.006L221.988 735.344L330.755 554.129Z" fill="#DDE9F7"/>
<path d="M772.744 704.713L758.861 1041.48L758.27 1041.44L772.069 706.71L671.37 840.119L671.32 840.054C670.96 840.703 669.634 842.483 665.39 848.169C661.576 853.282 656.124 860.579 649.579 869.332C636.49 886.839 619.032 910.171 601.573 933.5C566.654 980.159 531.727 1026.81 531.727 1026.81L531.651 1026.91L531.543 1026.92L275.678 1058.05L693.202 1178.01L693.268 1178.16L738.623 1285.21L562.353 1346.05L562.203 1345.3L737.736 1284.71L692.817 1178.69L271.827 1057.73L531.383 1026.16C535.211 1021.05 665.404 847.166 670.768 839.828L670.764 839.82L670.952 839.57L772.744 704.713Z" fill="#DDE9F7"/>
<path d="M16.2887 372.573L119.295 588.111L177.887 299.94L178.253 300.542L331.777 553.566L331.703 553.782L215.422 896.522L615.884 712.468L616.079 713.201L214.324 897.849L214.602 897.028L331.091 553.681L178.157 301.628L119.516 590.032L119.155 589.278L16.6021 374.689L-31.7965 730.32L-31.9353 730.404L-354.162 929.544L-353.791 928.551L-262.438 684.151L-261.908 684.493L-352.889 927.9L-32.325 729.787L16.2887 372.573Z" fill="#DDE9F7"/>
<path d="M374.999 1045.85L535.083 813.424L534.645 812.903L374.561 1045.33L374.999 1045.85Z" fill="#DDE9F7"/>
<path d="M330.851 552.317L535.013 812.844L894.946 883.179L894.468 883.732L760.01 1038.94L738.558 1284.05L944.983 1061.77L945.357 1062.37L737.803 1285.86L759.448 1038.56L759.534 1038.46L893.599 883.699L534.739 813.576L534.67 813.488L332.017 554.89L408.6 910.974L408.031 911.185L330.851 552.317Z" fill="#DDE9F7"/>
<path d="M323.68 974.253C323.624 968.644 328.807 966.748 330.965 971.588C331.197 972.11 331.326 972.719 331.333 973.323C331.387 978.931 326.207 980.826 324.048 975.988C323.816 975.466 323.686 974.857 323.68 974.253Z" fill="#DDE9F7"/>
<path d="M404.69 911.449C404.634 905.841 409.816 903.944 411.975 908.782C412.207 909.304 412.337 909.913 412.343 910.517C412.399 916.126 407.217 918.023 405.058 913.184C404.826 912.662 404.697 912.053 404.69 911.449Z" fill="#DDE9F7"/>
<path d="M531.048 813.709C530.99 808.099 536.173 806.202 538.332 811.042C538.565 811.564 538.694 812.173 538.7 812.777C538.756 818.386 533.576 820.283 531.416 815.444C531.183 814.922 531.054 814.313 531.048 813.709Z" fill="#DDE9F7"/>
</g>
<mask id="mask2_1463_30619" style="mask-type:luminance" maskUnits="userSpaceOnUse" x="-61" y="0" width="1562" height="1024">
<path d="M-60.4214 1024H1500.42V0H-60.4214V1024Z" fill="white"/>
</mask>
<g mask="url(#mask2_1463_30619)">
<g opacity="0.15">
<path d="M1059.19 1119.43L699.229 869.014L945.198 851.109L945.298 851.343L1059.19 1119.43ZM701.426 869.633L1057.57 1117.39L944.786 851.918L701.426 869.633Z" fill="#DDE9F7"/>
<path d="M656.256 1200.47L699.962 869.505L495.286 695.927L495.691 695.302L700.694 869.159L657.251 1198.14L945.652 849.05L875.128 1154.89L874.473 1154.69L944.316 851.796L656.256 1200.47Z" fill="#DDE9F7"/>
<path d="M657.302 1199.89L656.657 1199.68L375.874 1106.66L579.054 957.753L495.17 695.751L495.807 695.482L579.639 957.323L700.143 869.007L700.51 869.661L579.879 958.07L657.302 1199.89ZM377.502 1106.39L656.203 1198.72L579.292 958.5L377.502 1106.39Z" fill="#DDE9F7"/>
<path d="M376.659 1107.86L376.362 1106.62L312.845 841.159L313.042 841.001L496.134 694.621L495.813 695.732L376.659 1107.86ZM313.628 841.485L376.722 1105.18L494.848 696.598L313.628 841.485Z" fill="#DDE9F7"/>
<path d="M376.428 1106.78L97.9343 719.29L312.506 840.49L170.178 500.202L170.79 499.866L313.966 842.18L100.462 721.582L376.952 1106.29L376.428 1106.78Z" fill="#DDE9F7"/>
<path d="M489.014 1024.21L450.022 851.434L170.608 500.756L99.5139 720.559L47.4887 924.697L313.145 840.95L313.325 841.7L46.497 925.816L46.6653 925.148L98.8712 720.315L170.358 499.289L170.734 499.76L450.638 851.053L489.671 1024.02L489.014 1024.21Z" fill="#DDE9F7"/>
<path d="M456.78 1284.58L456.452 1283.85L376.439 1106.81L46.7028 925.528L46.6634 925.354L-8.57872 682.168L-151.186 631.011L-150.984 630.269L-8.78097 681.283L-46.0925 517.033L100.18 721.184L-7.81605 682.442L47.2811 924.987L376.937 1106.23L376.989 1106.34L456.724 1282.77L579.404 959.163L450.394 852.356L450.792 851.727L580.243 958.9L456.78 1284.58ZM-8.01655 681.557L98.2142 719.666L-44.6568 520.261L-8.01655 681.557Z" fill="#DDE9F7"/>
<path d="M902.585 1324.24L803.188 1101.1L727.897 1330.19L656.491 1199.56L312.294 840.872L700.543 868.962L700.631 869.159L803.095 1099.18L845.854 969.076L902.585 1324.24ZM803.512 1100.12L901.083 1319.15L845.625 971.973L803.512 1100.12ZM314.179 841.786L657.018 1199.06L657.043 1199.1L727.747 1328.45L802.771 1100.16L700.113 869.71L314.179 841.786Z" fill="#DDE9F7"/>
<path d="M-241.436 948.751L-149.503 628.316L-148.859 628.558L-240.234 947.053L-98.2513 852.646L-98.2101 852.726C-97.6641 852.222 -95.788 850.958 -89.789 846.916C-84.3969 843.285 -76.6937 838.1 -67.4473 831.885C-48.9545 819.453 -24.2926 802.888 0.369285 786.328C49.6948 753.208 99.0257 720.101 99.0257 720.101L99.1331 720.029L99.2549 720.054L390.054 777.434L-45.6658 518.922L-45.7034 518.752L-71.6686 399.889L137.623 401.374L137.619 402.151L-70.7967 400.672L-45.0805 518.392L394.254 779.048L99.2621 720.843C93.8539 724.472 -90.0325 847.879 -97.6481 853.131L-97.6445 853.142L-97.9094 853.32L-241.436 948.751Z" fill="#DDE9F7"/>
<path d="M521.893 1527.97L456.658 1284.65L326.192 1542.88L325.923 1542.18L213.19 1245.4L213.319 1245.22L420.158 954.003L-65.7381 994.879L-65.7864 994.104L421.678 953.095L421.182 953.794L213.976 1245.52L326.278 1541.16L456.85 1282.72L457.077 1283.57L522.028 1525.82L656.52 1198.97L656.692 1198.93L1059.26 1116.75L1058.63 1117.58L901.78 1322.36L901.27 1321.85L1057.48 1117.91L656.986 1199.66L521.893 1527.97Z" fill="#DDE9F7"/>
<path d="M845.732 970.934L845.76 970.149L580.063 958.039L580.036 958.824L845.732 970.934Z" fill="#DDE9F7"/>
<path d="M657.05 1199.42L743.769 966.422L743.144 966.118L656.426 1199.12L657.05 1199.42Z" fill="#DDE9F7"/>
<path d="M664.976 1476.88L456.389 1283.85L456.417 1283.63L488.707 1026.58L358.096 1268.34L357.519 1267.93L489.844 1023L457.115 1283.52L664.249 1475.21L656.396 1198.71L656.888 1198.96L901.661 1321.75L901.387 1322.46L657.108 1199.92L664.976 1476.88Z" fill="#DDE9F7"/>
<path d="M47.2517 925.589L277.585 755.862L277.218 755.21L46.8844 924.936L47.2517 925.589Z" fill="#DDE9F7"/>
<path d="M454.678 852.109C453.465 857.542 447.292 857.603 445.996 852.197C445.856 851.611 445.851 850.979 445.982 850.391C447.195 844.96 453.366 844.899 454.664 850.303C454.806 850.888 454.809 851.521 454.678 852.109Z" fill="#DDE9F7"/>
<path d="M499.836 696.458C498.623 701.891 492.45 701.952 491.154 696.544C491.014 695.959 491.009 695.326 491.14 694.738C492.353 689.307 498.524 689.246 499.822 694.65C499.964 695.235 499.969 695.87 499.836 696.458Z" fill="#DDE9F7"/>
<path d="M551.918 859.133C550.705 864.564 544.532 864.625 543.236 859.22C543.096 858.634 543.091 858.001 543.222 857.413C544.435 851.982 550.608 851.921 551.904 857.327C552.044 857.913 552.049 858.546 551.918 859.133Z" fill="#DDE9F7"/>
<path d="M704.676 870.2C703.462 875.63 697.289 875.692 695.993 870.286C695.853 869.7 695.848 869.067 695.979 868.479C697.192 863.049 703.365 862.987 704.661 868.393C704.803 868.977 704.806 869.612 704.676 870.2Z" fill="#DDE9F7"/>
<path d="M949.078 852.098C947.864 857.528 941.693 857.589 940.396 852.184C940.256 851.598 940.251 850.965 940.381 850.377C941.595 844.945 947.768 844.883 949.064 850.291C949.203 850.875 949.209 851.508 949.078 852.098Z" fill="#DDE9F7"/>
<path d="M850.087 971.38C848.873 976.81 842.7 976.872 841.404 971.466C841.265 970.88 841.259 970.247 841.39 969.659C842.604 964.229 848.776 964.168 850.072 969.573C850.214 970.157 850.217 970.792 850.087 971.38Z" fill="#DDE9F7"/>
<path d="M747.747 967.117C746.534 972.549 740.361 972.609 739.065 967.203C738.925 966.617 738.92 965.984 739.05 965.396C740.264 959.966 746.437 959.904 747.733 965.31C747.874 965.896 747.878 966.529 747.747 967.117Z" fill="#DDE9F7"/>
<path d="M692.263 963.32C691.049 968.75 684.877 968.812 683.581 963.406C683.441 962.82 683.436 962.187 683.566 961.599C684.78 956.169 690.953 956.108 692.249 961.513C692.39 962.099 692.396 962.732 692.263 963.32Z" fill="#DDE9F7"/>
<path d="M493.315 1025.42C492.102 1030.85 485.931 1030.91 484.633 1025.5C484.491 1024.92 484.488 1024.28 484.619 1023.7C485.832 1018.26 492.005 1018.2 493.301 1023.61C493.441 1024.19 493.446 1024.83 493.315 1025.42Z" fill="#DDE9F7"/>
<path d="M425.317 954.611C424.104 960.041 417.933 960.103 416.635 954.699C416.495 954.113 416.49 953.48 416.62 952.892C417.834 947.46 424.007 947.399 425.303 952.806C425.443 953.388 425.448 954.023 425.317 954.611Z" fill="#DDE9F7"/>
<path d="M317.77 841.971C316.557 847.401 310.382 847.463 309.088 842.055C308.948 841.469 308.943 840.836 309.075 840.248C310.291 834.82 316.462 834.759 317.758 840.164C317.897 840.748 317.903 841.383 317.77 841.971Z" fill="#DDE9F7"/>
<path d="M396.505 779.078C395.292 784.511 389.119 784.572 387.823 779.164C387.683 778.578 387.678 777.945 387.809 777.358C389.022 771.927 395.193 771.866 396.491 777.269C396.632 777.855 396.638 778.49 396.505 779.078Z" fill="#DDE9F7"/>
<path d="M281.72 756.43C280.506 761.861 274.334 761.924 273.038 756.516C272.898 755.931 272.893 755.298 273.023 754.71C274.237 749.277 280.41 749.218 281.706 754.624C281.847 755.209 281.853 755.842 281.72 756.43Z" fill="#DDE9F7"/>
<path d="M911.572 1014.21C910.358 1019.64 904.185 1019.71 902.889 1014.3C902.75 1013.71 902.744 1013.08 902.875 1012.49C904.089 1007.06 910.26 1007 911.557 1012.4C911.699 1012.99 911.704 1013.62 911.572 1014.21Z" fill="#DDE9F7"/>
<path d="M584.392 959.263C583.178 964.696 577.006 964.755 575.71 959.349C575.57 958.764 575.565 958.131 575.695 957.543C576.909 952.112 583.082 952.051 584.378 957.457C584.519 958.042 584.525 958.675 584.392 959.263Z" fill="#DDE9F7"/>
</g>
</g>
<mask id="mask3_1463_30619" style="mask-type:luminance" maskUnits="userSpaceOnUse" x="-61" y="0" width="1562" height="1024">
<path d="M-60.4214 1024H1500.42V0H-60.4214V1024Z" fill="white"/>
</mask>
<g mask="url(#mask3_1463_30619)">
<path d="M477.209 -61.2315L811.357 177.796L587.165 203.411L587.068 203.18L477.209 -61.2315ZM809.34 177.247L478.733 -59.2466L587.521 202.592L809.34 177.247Z" fill="#DDE9F7"/>
<path d="M843.341 -154.884L810.678 177.329L1001.36 344.421L1001 345.058L810.017 177.698L842.482 -152.519L586.794 205.485L644.492 -102.455L645.095 -102.279L587.953 202.697L843.341 -154.884Z" fill="#DDE9F7"/>
<path d="M842.398 -154.274L842.99 -154.081L1101.4 -69.9035L919.142 85.3214L1001.47 344.593L1000.89 344.88L918.617 85.7679L810.521 177.832L810.173 177.191L918.383 85.0305L842.398 -154.274ZM1099.92 -69.5818L843.426 -153.135L918.908 84.5819L1099.92 -69.5818Z" fill="#DDE9F7"/>
<path d="M1100.66 -71.1008L1100.96 -69.8698L1164.76 193.499L1164.58 193.663L1000.61 345.733L1000.88 344.613L1100.66 -71.1008ZM1164.04 193.2L1100.66 -68.4154L1001.75 343.715L1164.04 193.2Z" fill="#DDE9F7"/>
<path d="M1100.89 -69.9811L1363.66 308.627L1165.09 194.203L1302.49 529.899L1301.94 530.253L1163.72 192.558L1361.3 306.415L1100.43 -69.4711L1100.89 -69.9811Z" fill="#DDE9F7"/>
<path d="M999.901 16.0572L1039.28 187.546L1302.08 529.328L1362.19 307.376L1405.22 101.681L1164.49 193.732L1164.31 192.991L1406.1 100.532L1405.96 101.206L1362.78 307.6L1302.34 530.784L1301.99 530.326L1038.73 187.948L999.306 16.2702L999.901 16.0572Z" fill="#DDE9F7"/>
<path d="M1023.63 -245.203L1023.95 -244.486L1100.88 -70.0226L1405.92 100.85L1405.96 101.022L1461.72 342.385L1593.05 389.047L1592.88 389.795L1461.92 343.263L1499.59 506.282L1361.56 306.795L1461.02 342.135L1405.4 101.411L1100.44 -69.4203L1100.39 -69.533L1023.72 -243.394L918.79 83.9423L1038.92 186.66L1038.57 187.301L918.028 84.2292L1023.63 -245.203ZM1461.22 343.013L1363.39 308.252L1498.21 503.099L1461.22 343.013Z" fill="#DDE9F7"/>
<path d="M1302.24 529.128L1334.52 626.704L1499.73 503.601L1380.99 769.196L1334.22 627.831L1232.73 703.452L1302.24 529.128ZM1333.98 627.106L1302.19 530.998L1234.23 701.43L1333.98 627.106ZM1381.07 767.418L1498.06 505.749L1334.76 627.429L1381.07 767.418Z" fill="#DDE9F7"/>
<path d="M615.716 -270.88L711.357 -50.9456L775.089 -282.312L843.147 -153.971L1165.27 193.782L810.159 177.882L810.074 177.688L711.483 -49.0304L675.29 82.365L615.716 -270.88ZM711.082 -49.9522L617.2 -265.847L675.435 79.4624L711.082 -49.9522ZM1163.53 192.928L842.676 -153.452L842.653 -153.497L775.265 -280.575L711.758 -50.0218L810.535 177.125L1163.53 192.928Z" fill="#DDE9F7"/>
<path d="M1668.5 68.596L1591.57 391.795L1590.98 391.574L1667.44 70.3311L1539.87 169.157L1539.83 169.077C1539.34 169.597 1537.66 170.92 1532.27 175.148C1527.42 178.948 1520.5 184.372 1512.2 190.876C1495.58 203.884 1473.43 221.215 1451.27 238.543C1406.96 273.2 1362.64 307.838 1362.64 307.838L1362.54 307.914L1362.43 307.894L1095.66 259.66L1499.16 504.404L1499.19 504.572L1525.5 622.575L1334.37 627.655L1334.36 626.879L1524.69 621.819L1498.63 504.949L1091.79 258.179L1362.41 307.109C1367.27 303.312 1532.47 174.182 1539.31 168.692L1539.3 168.684L1539.54 168.497L1668.5 68.596Z" fill="#DDE9F7"/>
<path d="M958.855 -486.464L1023.74 -245.284L1137.22 -507.514L1137.48 -506.815L1246.9 -213.683L1246.79 -213.495L1064.31 84.0967L1507.07 27.9907L1507.13 28.765L1062.94 85.0513L1063.38 84.3364L1246.18 -213.782L1137.18 -505.789L1023.61 -243.346L1023.38 -244.19L958.779 -484.314L843.132 -153.359L842.975 -153.319L477.201 -58.5426L477.765 -59.3947L616.493 -269.013L616.971 -268.517L478.807 -59.7511L842.692 -154.04L958.855 -486.464Z" fill="#DDE9F7"/>
<path d="M918.24 85.0844L918.248 84.2988L675.392 80.526L675.384 81.3116L918.24 85.0844Z" fill="#DDE9F7"/>
<path d="M769.212 82.1426L843.247 -153.514L842.67 -153.798L768.636 81.8583L769.212 82.1426Z" fill="#DDE9F7"/>
<path d="M1223.48 337.975L1362.52 307.89L1362.42 307.125L1223.37 337.21L1223.48 337.975Z" fill="#DDE9F7"/>
<path d="M1199.23 278.335L1405.81 101.398L1405.46 100.757L1198.88 277.694L1199.23 278.335Z" fill="#DDE9F7"/>
<path d="M1246.19 -215.167L1405.87 100.797L1759.88 279.613L1759.29 280.004L1593.22 389.675L1525.65 621.426L1777.63 468.62L1777.9 469.319L1524.55 622.96L1592.72 389.128L1592.82 389.058L1758.41 279.707L1405.45 101.424L1405.4 101.317L1246.9 -212.307L1258.64 157.432L1258.02 157.46L1246.19 -215.167Z" fill="#DDE9F7"/>
<path d="M1035.02 187.051C1036.01 181.577 1041.65 181.323 1042.95 186.69C1043.09 187.268 1043.1 187.901 1043 188.489C1042.01 193.96 1036.37 194.214 1035.07 188.849C1034.93 188.272 1034.91 187.641 1035.02 187.051Z" fill="#DDE9F7"/>
<path d="M997.19 344.023C998.177 338.55 1003.82 338.296 1005.12 343.664C1005.26 344.242 1005.28 344.875 1005.17 345.463C1004.18 350.932 998.544 351.188 997.242 345.821C997.101 345.244 997.083 344.613 997.19 344.023Z" fill="#DDE9F7"/>
<path d="M946.078 183.067C947.067 177.595 952.705 177.341 954.005 182.708C954.146 183.286 954.164 183.919 954.058 184.509C953.07 189.98 947.432 190.234 946.13 184.867C945.99 184.287 945.972 183.656 946.078 183.067Z" fill="#DDE9F7"/>
<path d="M806.356 176.806C807.344 171.334 812.984 171.08 814.284 176.447C814.424 177.025 814.442 177.658 814.336 178.246C813.348 183.717 807.709 183.973 806.409 178.604C806.268 178.027 806.25 177.396 806.356 176.806Z" fill="#DDE9F7"/>
<path d="M583.598 202.57C584.586 197.099 590.224 196.845 591.526 202.21C591.666 202.787 591.684 203.42 591.578 204.01C590.591 209.482 584.951 209.738 583.651 204.369C583.51 203.791 583.492 203.16 583.598 202.57Z" fill="#DDE9F7"/>
<path d="M671.371 80.2091C672.359 74.7378 677.997 74.4817 679.298 79.8506C679.439 80.4303 679.457 81.0612 679.351 81.6511C678.363 87.1225 672.725 87.3765 671.423 82.0097C671.284 81.4299 671.265 80.799 671.371 80.2091Z" fill="#DDE9F7"/>
<path d="M764.908 81.2725C765.896 75.8012 771.534 75.5472 772.835 80.914C772.976 81.4937 772.994 82.1246 772.888 82.7146C771.898 88.1859 766.262 88.442 764.96 83.0731C764.82 82.4934 764.802 81.8625 764.908 81.2725Z" fill="#DDE9F7"/>
<path d="M815.653 83.3305C816.641 77.8592 822.281 77.6031 823.581 82.972C823.721 83.5496 823.739 84.1826 823.633 84.7705C822.645 90.2418 817.005 90.4978 815.705 85.1289C815.565 84.5513 815.547 83.9204 815.653 83.3305Z" fill="#DDE9F7"/>
<path d="M1059.58 83.6314C1060.57 78.1601 1066.21 77.9061 1067.51 83.2709C1067.65 83.8506 1067.67 84.4815 1067.56 85.0715C1066.57 90.5448 1060.93 90.7988 1059.63 85.432C1059.49 84.8523 1059.48 84.2214 1059.58 83.6314Z" fill="#DDE9F7"/>
<path d="M1160.24 192.887C1161.23 187.415 1166.87 187.161 1168.17 192.53C1168.31 193.11 1168.33 193.741 1168.22 194.331C1167.23 199.8 1161.6 200.054 1160.3 194.687C1160.16 194.107 1160.14 193.477 1160.24 192.887Z" fill="#DDE9F7"/>
<path d="M1254.57 156.68C1255.56 151.209 1261.2 150.955 1262.5 156.322C1262.64 156.901 1262.66 157.532 1262.55 158.122C1261.56 163.593 1255.92 163.847 1254.62 158.481C1254.48 157.901 1254.47 157.27 1254.57 156.68Z" fill="#DDE9F7"/>
<path d="M1089.73 258.204C1090.72 252.733 1096.36 252.477 1097.66 257.846C1097.8 258.423 1097.82 259.056 1097.71 259.644C1096.72 265.116 1091.09 265.37 1089.78 260.003C1089.64 259.427 1089.62 258.794 1089.73 258.204Z" fill="#DDE9F7"/>
<path d="M1195.03 277.25C1196.02 271.779 1201.66 271.523 1202.96 276.892C1203.1 277.469 1203.12 278.102 1203.01 278.69C1202.02 284.161 1196.38 284.418 1195.08 279.049C1194.95 278.471 1194.93 277.838 1195.03 277.25Z" fill="#DDE9F7"/>
<path d="M1219.44 336.886C1220.43 331.413 1226.07 331.159 1227.37 336.525C1227.51 337.105 1227.53 337.736 1227.42 338.324C1226.43 343.795 1220.8 344.049 1219.5 338.684C1219.35 338.107 1219.34 337.476 1219.44 336.886Z" fill="#DDE9F7"/>
<path d="M1230.73 700.517C1231.71 695.045 1237.35 694.789 1238.65 700.158C1238.79 700.736 1238.81 701.367 1238.71 701.957C1237.72 707.428 1232.08 707.684 1230.78 702.315C1230.64 701.738 1230.62 701.107 1230.73 700.517Z" fill="#DDE9F7"/>
<path d="M614.297 39.3485C615.284 33.8752 620.924 33.6212 622.224 38.9901C622.365 39.5677 622.383 40.1986 622.276 40.7886C621.289 46.2599 615.651 46.5139 614.349 41.1491C614.208 40.5694 614.19 39.9364 614.297 39.3485Z" fill="#DDE9F7"/>
<path d="M914.234 83.9862C915.221 78.5149 920.861 78.2589 922.161 83.6278C922.302 84.2054 922.32 84.8363 922.213 85.4263C921.226 90.8976 915.588 91.1536 914.286 85.7847C914.145 85.205 914.127 84.5741 914.234 83.9862Z" fill="#DDE9F7"/>
</g>
</svg>
